<?xml version="1.0" encoding="UTF-8" standalone="no"?>
<!-- Created with Inkscape (http://www.inkscape.org/) -->

<svg
   width="500"
   height="500"
   viewBox="0 0 132.29167 132.29167"
   version="1.1"
   id="svg835"
   xmlns="http://www.w3.org/2000/svg"
   xmlns:svg="http://www.w3.org/2000/svg">
  <defs
     id="defs832" />
  <g
     id="layer1">
    <path
       id="path54316"
       style="display:inline;fill:#ffffff;fill-opacity:1;stroke:none;stroke-width:0.411438px;stroke-linecap:butt;stroke-linejoin:miter;stroke-opacity:1"
       d="m 67.842603,19.263691 c -6.26344,0.04165 -14.162647,1.076306 -20.497982,3.657139 -8.447116,3.441113 -31.11729,19.11766 -37.4328453,47.178783 -3.738415,19.731452 8.4349643,34.659327 19.2082213,38.381897 6.978852,2.41145 18.149006,3.92878 30.666611,4.3884 3.241188,0.0802 6.921523,0.20412 9.769248,0.14058 1.010336,0.0109 2.077207,-0.0569 2.906589,-0.0868 12.534721,-0.45776 23.723303,-1.97504 30.710015,-4.3892 10.77324,-3.72258 22.94582,-18.651253 19.2074,-38.382707 C 116.06432,42.090722 93.394942,26.414983 84.947822,22.973868 79.153094,20.319162 73.974751,19.259448 67.842603,19.263691 Z m -2.647832,12.857445 c 0.730998,0.0033 2.091057,0.289126 3.015876,1.413517 1.278976,1.555011 1.055306,4.467993 0.687069,6.370059 -0.368312,1.902052 -1.447999,5.030312 -3.907857,5.075475 -2.459862,0.04517 -3.540352,-3.173421 -3.908664,-5.075475 -0.368204,-1.902057 -0.591936,-4.815856 0.687068,-6.370865 0.906822,-1.032431 1.997183,-1.327962 3.289096,-1.4103 0.04283,-0.0021 0.08869,-0.0025 0.137419,-0.0025 z M 30.917629,47.381314 c 0.138833,-0.0029 0.280999,0.0021 0.425899,0.01609 2.003923,0.195191 3.90652,2.413413 4.9911,4.018755 1.084519,1.605391 2.532724,4.58105 0.825287,6.352383 -1.707435,1.771318 -4.747791,0.259226 -6.353183,-0.825292 -1.605316,-1.084595 -3.823598,-2.98635 -4.018755,-4.990291 -0.08882,-1.371263 0.473832,-2.351905 1.329139,-3.323647 0.417309,-0.461001 1.458467,-1.221425 2.800513,-1.247979 z m 67.410769,0.241881 c 1.40936,-0.02617 2.509462,0.771085 2.941152,1.247979 0.8553,0.971743 1.41716,1.952386 1.32834,3.323648 -0.19516,2.003955 -2.41344,3.905694 -4.018762,4.990305 -1.6054,1.084517 -4.645745,2.596594 -6.353182,0.825276 -1.707437,-1.771317 -0.258424,-4.74699 0.826088,-6.35238 1.084566,-1.605341 2.986374,-3.823566 4.990294,-4.018752 0.0966,-0.0095 0.19212,-0.01431 0.28607,-0.01609 z M 49.662175,64.621541 c 4.39388,0.126736 9.00196,1.190213 10.302832,3.075345 1.263611,1.831124 0.678668,3.452147 -0.516708,4.777337 -1.200976,1.331428 -1.778935,2.471353 0.918504,5.317362 2.697466,2.845986 7.044435,7.313407 10.854897,10.26104 3.810477,2.947644 6.705101,6.67201 3.530173,10.303648 -0.874105,0.994229 -1.940352,2.021927 -3.236062,2.708897 -4.329609,2.12681 -7.177797,-1.633218 -9.03878,-6.076752 -1.860996,-4.443534 -5.052053,-9.798166 -7.102937,-13.140301 -2.05088,-3.342145 -3.517999,-3.564412 -4.997527,-2.309522 -1.36105,1.15439 -3.299759,0.790936 -4.647969,-0.690282 -1.541761,-1.693802 -1.319425,-6.471872 -0.304559,-10.748827 0.07004,-0.295598 -3.83e-4,-1.71e-4 0.225004,-0.817252 0.434976,-1.340898 1.551834,-2.074069 2.29827,-2.38105 0.746451,-0.306966 1.40841,-0.288507 1.714862,-0.279643 z m 57.443855,15.06572 c 1.00664,0.01092 1.96714,0.199363 2.69363,0.697509 1.28077,0.878194 1.65453,2.331803 1.68031,3.017479 0.0306,1.294191 -0.16913,2.406616 -1.11859,3.399994 -1.43763,1.409658 -4.3596,1.441001 -6.28649,1.239945 -1.92694,-0.20111 -5.227522,-0.99698 -5.396922,-3.451434 -0.1694,-2.45441 2.852752,-3.802683 4.715482,-4.335359 1.04777,-0.299602 2.41833,-0.581497 3.71258,-0.568134 z m -83.661796,2.886498 c 1.294254,-0.01397 2.664808,0.268533 3.712589,0.568134 1.862726,0.532676 4.884874,1.880928 4.71547,4.33536 -0.16939,2.454432 -3.469984,3.250302 -5.396915,3.451434 -1.926896,0.201033 -4.848866,0.169713 -6.286488,-1.239945 -0.949451,-0.993378 -1.149229,-2.105803 -1.118593,-3.399994 0.02575,-0.685676 0.399539,-2.139285 1.680305,-3.017479 0.726493,-0.498135 1.686995,-0.687139 2.693632,-0.69751 z" />
  </g>
</svg>
