<?xml version="1.0" encoding="UTF-8" standalone="no"?>
<!-- Created with Inkscape (http://www.inkscape.org/) -->

<svg
   width="500"
   height="500"
   viewBox="0 0 132.29167 132.29167"
   version="1.1"
   id="svg835"
   xmlns="http://www.w3.org/2000/svg"
   xmlns:svg="http://www.w3.org/2000/svg">
  <defs
     id="defs832" />
  <g
     id="layer1">
    <g
       id="g17237"
       transform="matrix(1.5819497,0,0,1.5819497,-215.56842,-248.6558)">
      <path
         id="path1318"
         style="display:inline;fill:#ffffff;fill-opacity:1;stroke:none;stroke-width:0.264583px;stroke-linecap:butt;stroke-linejoin:miter;stroke-opacity:1"
         d="m 160.24956,166.46788 c -3.43684,1.53397 -2.41345,5.53137 0.007,8.51834 1.65354,2.04041 -0.50099,3.99619 -1.7136,4.53616 -1.21261,0.53997 -4.02339,0.80943 -4.46072,-1.72083 -0.65479,-3.78855 -2.98353,-7.17595 -6.40787,-5.61309 -2.598,1.18572 -4.81602,5.3913 -5.75262,8.04499 -1.6838,4.77076 -2.48454,12.46134 2.15129,17.25889 4.02241,4.16272 10.05611,4.34983 13.56404,2.19831 2.13706,-1.31074 2.36212,-1.57871 2.36212,-1.57871 0,0 4.90998,3.6559 8.25487,11.44782 4.23005,9.85392 4.30339,17.16532 6.36137,20.01842 1.72469,2.39104 5.2314,3.24985 8.33864,1.31498 3.10724,-1.93487 4.13612,-3.5661 3.41405,-7.08408 -0.79283,-3.42735 -5.19356,-8.15941 -10.68255,-17.37155 -4.44664,-7.46248 -5.09426,-13.09739 -5.09426,-13.09739 0,0 1.63197,-0.82986 3.73517,-2.19418 4.28699,-2.78093 5.26661,-8.06936 3.76875,-12.78165 -1.81813,-5.71989 -5.25319,-8.43064 -8.53228,-10.40195 -3.27909,-1.97131 -7.38182,-2.35668 -9.31354,-1.49448 z" />
      <path
         id="path10102"
         style="display:inline;fill:#ffffff;fill-opacity:1;stroke:none;stroke-width:0.2386px;stroke-linecap:butt;stroke-linejoin:miter;stroke-opacity:1"
         d="m 204.41344,178.83683 c -0.0417,-3e-5 -0.0829,8.8e-4 -0.12302,0.003 -2.24883,0.0812 -2.05237,2.45499 -2.62787,3.97278 -0.41121,1.0842 -1.52881,1.11035 -2.41071,1.09141 -1.05191,-0.0225 -2.35305,0.17864 -2.81705,-1.42414 -0.58871,-3.43355 -3.61488,-3.46102 -5.96829,-0.84349 -2.3534,2.6175 0.36868,3.68137 1.46563,5.17745 0.62052,0.84632 -0.26564,2.03509 -0.26564,2.03509 -0.50702,1.01406 -1.83424,1.52108 -3.29567,0.71581 -2.84414,-2.01164 -5.00351,0.10879 -4.81676,3.62375 0.0217,0.4102 0.0782,0.75605 0.16218,1.05133 0.31264,1.4985 1.58242,2.36842 3.68199,1.85475 2.21618,-0.49845 2.45953,0.61032 2.70058,1.43906 0.24106,0.82873 0.37379,1.9562 -0.583,2.59898 -0.9568,0.64276 -4.30568,0.80773 -3.07663,4.10607 1.22903,3.29836 4.0543,4.38317 5.86156,1.40504 1.01969,-1.32083 2.15652,-0.65621 3.14328,-0.29126 0.82732,0.30591 1.85736,0.74 1.84216,1.89948 -0.0233,1.85499 -1.3972,4.38068 2.07378,4.96542 3.47102,0.58483 5.82307,-1.31985 4.14756,-4.37404 -0.63408,-1.54341 0.51951,-2.80586 0.99309,-3.21086 0.47347,-0.40498 1.40586,-1.39079 2.98064,-0.41009 1.57472,0.9806 3.5429,3.86034 5.68727,0.28334 2.14442,-3.57655 0.48958,-5.0467 -2.06493,-5.37597 -1.36722,-0.33778 -2.30438,-0.81278 -1.82772,-2.64186 0.23401,-0.89801 1.20858,-1.30998 2.26112,-1.0504 2.4976,0.63096 4.57541,-0.1301 3.89263,-4.24402 -0.68276,-4.11392 -3.5699,-2.15665 -5.39459,-1.82212 -1.82476,0.33456 -2.33035,-0.92447 -2.6223,-1.47495 -0.29193,-0.55047 -0.9016,-2.14788 0.25445,-3.35112 2.67919,-2.22659 1.18989,-4.86146 -2.25366,-5.59081 -0.37664,-0.0798 -0.70788,-0.11677 -1.00008,-0.11697 z m -4.48447,12.28887 a 4.1897562,4.3452327 72.363169 0 1 3.72814,2.06352 4.1897562,4.3452327 72.363169 0 1 -1.64737,5.75904 4.1897562,4.3452327 72.363169 0 1 -5.89931,-1.47774 4.1897562,4.3452327 72.363169 0 1 1.64689,-5.75951 4.1897562,4.3452327 72.363169 0 1 2.17165,-0.58531 z" />
    </g>
  </g>
</svg>
