<?xml version="1.0" encoding="UTF-8" standalone="no"?>
<!-- Created with Inkscape (http://www.inkscape.org/) -->

<svg
   width="500"
   height="500"
   viewBox="0 0 132.29167 132.29167"
   version="1.1"
   id="svg835"
   xmlns="http://www.w3.org/2000/svg"
   xmlns:svg="http://www.w3.org/2000/svg">
  <defs
     id="defs832" />
  <g
     id="layer1">
    <path
       id="path870"
       style="display:inline;fill:#ffffff;fill-opacity:1;stroke:none;stroke-width:0.445983px;stroke-linecap:butt;stroke-linejoin:miter;stroke-opacity:1"
       d="m 34.153,10.958584 c -5.654159,0 -7.978564,1.935502 -8.872663,7.238531 -0.950582,5.638248 -0.333952,17.51369 8.94e-4,22.703396 -4.917059,5.343991 -8.423533,9.794591 -10.282895,12.059865 -9.3826267,11.430862 -8.4267175,18.930865 -1.636728,21.293147 5.861962,2.039402 11.412979,-0.470455 11.180095,6.323042 -0.255438,7.451424 -1.53827,23.364375 -1.164604,27.333085 0.46575,4.94699 -0.440332,9.87543 5.668874,11.95709 5.019291,1.71027 11.769838,1.42618 17.040605,1.46598 5.439532,0.0411 8.002451,-3.41396 8.002451,-7.83869 0,-4.42473 -1.227732,-14.439737 0.46602,-20.601506 1.480404,-5.385573 5.604839,-6.601337 11.591248,-6.714155 5.985921,0.112937 10.110036,1.328851 11.590355,6.714155 1.693751,6.161769 0.465144,16.176776 0.465144,20.601506 0,4.42473 2.563812,7.87982 8.003326,7.83869 5.270765,-0.0398 12.020453,0.24429 17.039748,-1.46598 6.1092,-2.08166 5.20312,-7.0101 5.66887,-11.95709 0.37365,-3.96871 -0.90831,-19.881661 -1.16374,-27.333085 -0.23287,-6.793497 5.31815,-4.28364 11.18009,-6.323042 6.78996,-2.362282 7.74585,-9.862285 -1.63672,-21.293147 -2.44722,-2.981456 -7.73323,-9.73996 -15.35684,-17.352444 C 94.853695,28.53545 86.563129,20.589317 76.651305,14.5282 74.350009,13.121677 70.807126,11.462514 66.600991,11.400214 c -4.206154,-0.06237 -6.988219,0.856122 -9.940581,2.621899 -4.93968,3.020646 -9.729003,6.635335 -14.168715,10.376985 0.0118,-2.446292 -0.12878,-4.866288 -0.561831,-7.434534 -0.849125,-5.035861 -3.541382,-6.00598 -7.776847,-6.00598 z M 66.145403,42.619125 A 14.530013,14.195991 0 0 1 80.675597,56.814826 14.530013,14.195991 0 0 1 66.145403,71.010543 14.530013,14.195991 0 0 1 51.616071,56.814826 14.530013,14.195991 0 0 1 66.145403,42.619125 Z" />
  </g>
</svg>
