<svg width="91" height="91" viewBox="0 0 91 91" fill="none" xmlns="http://www.w3.org/2000/svg">
<path d="M71.0938 0C60.1169 0 51.1875 8.92938 51.1875 19.9062C51.1875 30.121 67.158 48.2129 68.978 50.2434C69.5183 50.8406 70.2861 51.1875 71.0938 51.1875C71.9014 51.1875 72.6692 50.8406 73.2095 50.2434C75.0295 48.2129 91 30.121 91 19.9062C91 8.92938 82.0706 0 71.0938 0ZM71.0938 28.4375C66.3845 28.4375 62.5625 24.6155 62.5625 19.9062C62.5625 15.197 66.3845 11.375 71.0938 11.375C75.803 11.375 79.625 15.197 79.625 19.9062C79.625 24.6155 75.803 28.4375 71.0938 28.4375Z" fill="white"/>
<path d="M1.78588 33.4084C0.710938 33.8406 0 34.8871 0 36.0531V88.1562C0 89.1004 0.472063 89.9819 1.25125 90.5109C1.729 90.8294 2.28069 91 2.84375 91C3.20206 91 3.56037 90.9317 3.90162 90.7952L28.4375 80.9786V22.75L1.78588 33.4084Z" fill="white"/>
<path d="M77.441 54.0426C75.8258 55.8399 73.5109 56.875 71.0938 56.875C68.6766 56.875 66.3617 55.8399 64.7465 54.0426C64.1664 53.3999 63.4213 52.5525 62.5625 51.5458V91L89.2141 80.3416C90.2947 79.9151 91 78.8629 91 77.7026V35.8938C86.3419 43.7824 80.1141 51.0624 77.441 54.0426Z" fill="white"/>
<path d="M47.2916 28.0166L34.125 22.75V80.9786L56.875 90.0786V44.408C53.2407 39.5111 49.4471 33.6131 47.2916 28.0166Z" fill="white"/>
</svg>
