<?xml version="1.0" encoding="UTF-8" standalone="no"?>
<!-- Created with Inkscape (http://www.inkscape.org/) -->

<svg
   width="500"
   height="500"
   viewBox="0 0 132.29167 132.29167"
   version="1.1"
   id="svg835"
   xmlns="http://www.w3.org/2000/svg"
   xmlns:svg="http://www.w3.org/2000/svg">
  <defs
     id="defs832" />
  <g
     id="layer1">
    <g
       id="g17492"
       transform="matrix(1.7266354,0,0,1.7266354,-232.04792,-255.77961)">
      <path
         id="path17011"
         style="display:inline;fill:#ffffff;fill-opacity:1;stroke:none;stroke-width:0.264583px;stroke-linecap:butt;stroke-linejoin:miter;stroke-opacity:1"
         d="m 146.10828,178.39695 c -1.54963,1.32384 -3.14617,3.50054 -2.96777,6.42752 0.17862,2.93076 1.75642,4.11962 2.98844,5.43377 1.12893,1.22383 1.87383,2.83804 1.87172,4.98626 -0.10266,3.3099 -1.00943,4.1218 -2.66237,5.84564 -2.41546,2.51909 -3.66757,3.89319 -4.93354,6.93601 -1.09569,2.63353 -0.70493,5.90769 1.31929,7.86412 2.24837,2.17306 5.80594,2.16904 11.84683,2.02778 5.28854,0.10353 8.48109,-0.0369 10.57041,-2.0562 2.02423,-1.95644 2.41447,-5.23059 1.31878,-7.86412 -1.26597,-3.04282 -2.51808,-4.41744 -4.93354,-6.93653 -1.65294,-1.72384 -2.5592,-2.53522 -2.66186,-5.84512 -0.002,-2.14822 0.7428,-3.76295 1.87172,-4.98678 1.23202,-1.31415 2.80983,-2.503 2.98845,-5.43377 0.17839,-2.92697 -1.41814,-5.10368 -2.96778,-6.42752 -1.93094,-1.45371 -4.24599,-2.13393 -6.73271,-2.16946 -2.76531,-0.0558 -5.35376,0.92352 -6.91607,2.1984 z" />
      <path
         style="display:inline;fill:#ffffff;fill-opacity:1;stroke:none;stroke-width:0.350305px;stroke-linecap:butt;stroke-linejoin:miter;stroke-opacity:1"
         d="m 163.3316,158.09683 c -0.42036,3.13658 -0.28606,6.71821 -0.0513,8.30638 0.28156,1.90458 0.92361,3.42327 1.82975,3.91656 1.26177,0.6869 2.21144,-0.78405 3.00724,-3.00724 0.54421,-1.52033 0.92827,-3.56641 1.16409,-4.97971 0.23277,-1.39501 0.43555,-4.12311 -0.22635,-5.62643 -0.41051,-0.93236 -1.18595,-1.6168 -2.5222,-1.77848 -2.11186,-0.10459 -2.95759,1.59414 -3.20125,3.16892 z"
         id="path29034" />
      <path
         style="display:inline;fill:#ffffff;fill-opacity:1;stroke:none;stroke-width:0.350305px;stroke-linecap:butt;stroke-linejoin:miter;stroke-opacity:1"
         d="m 163.96358,175.83904 c 0.51737,1.51978 2.58166,1.52043 3.49227,0.74372 1.09942,-0.93774 1.52961,-3.41351 -0.22635,-4.26832 -2.58804,-0.95286 -3.81027,2.1668 -3.26592,3.5246 z"
         id="path31140" />
      <path
         id="path32566"
         style="display:inline;fill:#ffffff;fill-opacity:1;stroke:none;stroke-width:0.264583px;stroke-linecap:butt;stroke-linejoin:miter;stroke-opacity:1"
         d="m 187.82718,163.67382 c -6.75305,0.0499 -9.2629,1.67534 -11.55278,3.40857 -3.07899,2.33053 -4.9485,5.76954 -5.19813,10.17613 -0.40462,7.14243 1.18733,12.93604 4.01422,19.76417 2.8269,6.82812 3.85604,9.13464 6.75721,13.779 2.90117,4.64436 8.43268,4.3383 11.46959,0.70745 3.03691,-3.63085 5.76493,-9.77774 7.4414,-13.96297 1.98417,-4.95337 4.94017,-12.10053 4.83692,-18.48311 -0.0952,-5.88594 -2.08919,-9.2136 -4.62246,-11.544 -2.53326,-2.3304 -5.22102,-3.79029 -12.47883,-3.84524 -0.2268,-0.002 -0.44929,-0.002 -0.66714,0 z m 0.339,10.68668 c 0.96512,0.009 2.0194,0.3121 3.13624,1.03663 1.66078,1.36769 2.73543,3.51676 1.95389,7.03368 -0.78154,3.51693 -4.20075,4.9823 -6.44767,4.29845 -2.75032,-0.83706 -5.37308,-3.90782 -4.20078,-7.91321 0.57037,-1.85766 2.66298,-4.48196 5.55832,-4.45555 z" />
    </g>
  </g>
</svg>
