<?xml version="1.0" encoding="UTF-8" standalone="no"?>
<!-- Created with Inkscape (http://www.inkscape.org/) -->

<svg
   width="500"
   height="500"
   viewBox="0 0 132.29167 132.29167"
   version="1.1"
   id="svg835"
   xmlns="http://www.w3.org/2000/svg"
   xmlns:svg="http://www.w3.org/2000/svg">
  <defs
     id="defs832" />
  <g
     id="layer1">
    <g
       id="g17362"
       transform="matrix(1.2930156,0,0,1.2930156,-7.2594662,2.012785)">
      <path
         id="path76587"
         style="display:inline;fill:#ffffff;fill-opacity:1;stroke:none;stroke-width:0.264583px;stroke-linecap:butt;stroke-linejoin:miter;stroke-opacity:1"
         d="m 42.57626,15.91227 c -12.34008,0.36936 -27.15707,5.86248 -30.17387,26.10022 -4.49013,30.12127 22.76612,31.14413 23.39754,31.20843 0.63143,0.0643 1.83606,0.0935 1.83606,0.0935 0,0 0.15176,3.88207 1.83555,7.43675 0.9114,1.92409 2.16948,2.49875 3.45457,2.53421 1.28509,0.0355 2.63308,-0.53097 3.57342,-2.51612 1.68379,-3.55468 1.83555,-7.43676 1.83555,-7.43676 0,0 1.20463,-0.0292 1.83606,-0.0935 C 50.80256,73.1747 78.05881,72.15184 73.56868,42.03056 69.66265,26.40026 56.32067,16.05261 42.57626,15.91226 Z m 0.55345,13.27568 c 1.13781,0.005 2.76618,1.50099 3.84576,4.07779 2.06335,4.12674 2.23268,4.28904 5.99292,4.64157 3.76024,0.35251 6.22796,2.46769 5.22914,4.64158 -0.9988,2.17388 -3.8781,3.5841 -4.7594,4.28915 -0.88131,0.70503 -1.64511,2.70221 -1.35134,5.22862 0.29381,2.52641 0.82298,4.52416 0.35295,5.64048 -0.47003,1.11632 -1.64541,2.05652 -3.58428,0.82269 -1.93887,-1.23383 -3.05489,-2.52661 -3.93619,-3.34915 -0.62541,-0.58371 -1.14884,-1.15084 -1.99781,-1.15084 -0.84898,0 -1.37241,0.56713 -1.99781,1.15084 -0.88131,0.82255 -1.99733,2.11532 -3.9362,3.34915 -1.93887,1.23383 -3.11425,0.29363 -3.58427,-0.82269 -0.47003,-1.11632 0.0592,-3.11407 0.35295,-5.64048 0.29377,-2.52641 -0.47003,-4.52359 -1.35134,-5.22862 -0.8813,-0.70505 -3.76059,-2.11527 -4.7594,-4.28915 -0.99882,-2.17389 1.46889,-4.28907 5.22913,-4.64158 3.76024,-0.35253 3.63985,0.0646 5.99292,-4.64157 1.77363,-3.54727 3.12446,-4.08279 4.26227,-4.07779 z" />
      <path
         id="path86933"
         style="display:inline;fill:#ffffff;fill-opacity:1;stroke:none;stroke-width:0.264583px;stroke-linecap:butt;stroke-linejoin:miter;stroke-opacity:1"
         d="m 86.13558,26.700345 c -3.295467,-0.03219 -6.419088,0.257376 -8.179863,0.575159 -2.854206,0.515131 -5.010489,1.680977 -6.390825,3.200839 2.00811,3.278693 3.577039,6.937529 4.570264,10.911994 l 0.03152,0.125058 0.01913,0.126608 c 0.469794,3.151542 0.584017,6.028997 0.429948,8.669237 1.741304,0.262501 3.816223,0.498327 5.837885,0.514181 4.634741,0.0364 7.871354,-0.132292 7.871354,-0.132292 0,0 0.935075,3.817072 1.802474,4.613672 0.810281,0.744151 1.760263,0.612021 2.414323,-1.046448 0.346509,-0.87865 0.5836,-1.766547 0.79375,-2.728516 0.157827,-0.72249 0.281112,-1.830896 0.281112,-1.830896 0,0 3.371358,-0.58325 4.960938,-4.530989 1.49201,-3.705421 1.34428,-9.579533 -0.0331,-12.501562 -1.279753,-2.71498 -3.089652,-4.200023 -6.96857,-5.169194 -2.210194,-0.552225 -4.877234,-0.771811 -7.440372,-0.796851 z m -7.200595,9.954432 c 0.590177,-0.0016 1.136496,0.441468 1.411284,1.300178 0.374179,1.1693 -0.181549,2.592721 -1.169439,2.806031 -0.987888,0.21331 -1.671543,-0.736418 -1.730643,-1.613339 -0.05906,-0.876919 0.03511,-1.8707 0.841809,-2.31562 0.214281,-0.118182 0.43352,-0.176689 0.646989,-0.17725 z m 6.994921,0 c 0.590177,-0.0016 1.136497,0.441468 1.411285,1.300178 0.374179,1.1693 -0.181549,2.592721 -1.16944,2.806031 -0.987888,0.21331 -1.671542,-0.736418 -1.730642,-1.613339 -0.05906,-0.876919 0.03511,-1.8707 0.841809,-2.31562 0.214281,-0.118182 0.43352,-0.176689 0.646988,-0.17725 z m 6.994922,0 c 0.590177,-0.0016 1.136497,0.441468 1.411285,1.300178 0.374179,1.1693 -0.181549,2.592721 -1.16944,2.806031 -0.987888,0.21331 -1.671542,-0.736418 -1.730642,-1.613339 -0.05906,-0.876919 0.03511,-1.8707 0.841809,-2.31562 0.214281,-0.118182 0.43352,-0.176689 0.646988,-0.17725 z" />
    </g>
  </g>
</svg>
